<svg xmlns="http://www.w3.org/2000/svg" version="1.1" xmlns:xlink="http://www.w3.org/1999/xlink" xmlns:svgjs="http://svgjs.com/svgjs" width="1440" height="560" preserveAspectRatio="none" viewBox="0 0 1440 560"><g mask="url(&quot;#SvgjsMask1078&quot;)" fill="none"><rect width="1440" height="560" x="0" y="0" fill="rgba(18, 18, 18, 1)"></rect><path d="M0,425.439C111.326,432.939,223.328,553.666,319.883,497.748C415.039,442.64,367.084,288.503,410.726,187.572C453.049,89.692,564.412,24.423,570.578,-82.037C577.031,-193.456,527.394,-310.592,443.864,-384.61C362.984,-456.279,243.183,-446.65,136.921,-466.31C42.194,-483.836,-49.474,-506.619,-144.918,-493.547C-252.636,-478.794,-386.109,-477.205,-446.014,-386.473C-506.947,-294.184,-422.003,-172.122,-429.963,-61.819C-437.111,37.226,-515.371,127.779,-490.056,223.801C-463.632,324.029,-389.189,416.994,-293.333,456.435C-200.528,494.62,-100.127,418.693,0,425.439" fill="#0e0e0e"></path><path d="M1440 1039.091C1533.863 1052.637 1643.838 1049.962 1713.5819999999999 985.701 1782.895 921.837 1763.377 809.837 1787.653 718.768 1807.2359999999999 645.304 1849.1970000000001 577.864 1842.483 502.132 1835.57 424.166 1799.145 352.31600000000003 1749.778 291.576 1699.321 229.495 1637.772 169.26 1559.298 153.709 1482.84 138.55700000000002 1412.731 190.661 1337.175 209.81 1257.902 229.901 1164.054 213.29899999999998 1104.22 269.045 1043.377 325.731 1021.886 417.28700000000003 1025.301 500.375 1028.466 577.381 1090.28 634.985 1122.145 705.16 1154.1 775.5360000000001 1159.571 857.453 1212.8600000000001 913.437 1273.749 977.406 1352.591 1026.476 1440 1039.091" fill="#161616"></path></g><defs><mask id="SvgjsMask1078"><rect width="1440" height="560" fill="#ffffff"></rect></mask></defs></svg>